# xmcd CD database file
#
# Track frame offsets:
#	150
#	17781
#	35875
#	55883
#	75943
#	96972
#	111974
#	128292
#	145902
#	164703
#	183239
#	200659
#	218416
#	235655
#	253496
#	272908
#	287788
#	300358
#	319527
#	336355
#
# Disc length: 4722 seconds
#
# Revision: 0
# Processed by: cddbd v1.5.2PL0 Copyright (c) Steve Scherf et al.
# Submitted via: CDex 1.51
#
DISCID=22127014
DTITLE=Various Artist - Essential Jazz ~ Nu Jazz  [CD 4-4]
DYEAR=2008
DGENRE=Jazz
TTITLE0=The Peter Malick Group feat. Norah Jones - New York City
TTITLE1=Quantic feat. Alice Russel - The Sound Of Everything
TTITLE2=Kinny and Horn - Sacred Life
TTITLE3=Jazzanova - Coffee Talk Yukihiro Fukutom Remix
TTITLE4=Metropolitain Jazz Afair - Yunowhathislifeez
TTITLE5=Benny Sing - Get There
TTITLE6=Jumbonics - (You Little) Jezebel  (Diesler Mix)
TTITLE7=Nutropic feat. Stephane Belmondo - We've Got It !
TTITLE8=Earl Zinger - Who Killed Saturday Night
TTITLE9=Bellruche - Minor Swing
TTITLE10=Patchworks - Summertime
TTITLE11=Slow Train - Naturally
TTITLE12=Tosca - Pyjama
TTITLE13=Bugge Wesseltoft - Change
TTITLE14=TM Juke - High Rise
TTITLE15=Fertile Ground - Take Me Higher
TTITLE16=Zyco 103 vocal by Lilian Vieira - Q Baiano
TTITLE17=Dj Cam feat. Anggun - Summer In Paris
TTITLE18=Beadie Belle - Ghosts
TTITLE19=(Re-Jazz) - All I Need
EXTD=YEAR: 2008
EXTT0=
EXTT1=
EXTT2=
EXTT3=
EXTT4=
EXTT5=
EXTT6=
EXTT7=
EXTT8=
EXTT9=
EXTT10=
EXTT11=
EXTT12=
EXTT13=
EXTT14=
EXTT15=
EXTT16=
EXTT17=
EXTT18=
EXTT19=
PLAYORDER=
